<svg xmlns="http://www.w3.org/2000/svg" width="144.6" height="143.952" viewBox="0 0 144.6 143.952">
  <g id="Layer_1" data-name="Layer 1" transform="translate(0.25 0.251)">
    <path id="Path_99" data-name="Path 99" d="M.25.25s48.1.17,48.1,48.1v95.28s-48-.47-48-48S.25.25.25.25Z" transform="translate(-0.25 -0.25)" fill="#fff" stroke="#ccc" stroke-miterlimit="10" stroke-width="0.5"/>
    <path id="Path_100" data-name="Path 100" d="M96.25,143.7s48.1-.17,48.1-48.1V.32s-48,.47-48,48S96.25,143.7,96.25,143.7Z" transform="translate(-0.25 -0.25)" fill="#fff" stroke="#ccc" stroke-miterlimit="10" stroke-width="0.5"/>
    <path id="Path_101" data-name="Path 101" d="M50.31,105.43s19-.07,19-19V48.68s-19,.18-19,19S50.31,105.43,50.31,105.43Z" transform="translate(-0.25 -0.25)" fill="#fff" stroke="#ccc" stroke-miterlimit="10" stroke-width="0.5"/>
    <path id="Path_102" data-name="Path 102" d="M93.39,105.35s-19-.07-19-19V48.59s19,.19,19,19Z" transform="translate(-0.25 -0.25)" fill="#fff" stroke="#ccc" stroke-miterlimit="10" stroke-width="0.5"/>
  </g>
</svg>
