<svg id="Render-player" xmlns="http://www.w3.org/2000/svg" width="175.021" height="141.376" viewBox="0 0 175.021 141.376">
  <path id="Path_5" data-name="Path 5" d="M590.927,370.7a26.841,26.841,0,0,0-52.667-5.652c-.332,0-.637-.028-.97-.028A26.838,26.838,0,0,0,511.524,384.3,19.027,19.027,0,0,0,489,389.9h83.753a18.18,18.18,0,0,0,18.2-18.812A1.962,1.962,0,0,1,590.927,370.7Z" transform="translate(-415.949 -249.694)" fill="#707070"/>
  <path id="Path_6" data-name="Path 6" d="M259.287,177.583s-10.667-3.325-9.032,2.133,10.639,2.715,10.639,2.715Z" transform="translate(-243.226 -127.673)" fill="#ffb8b8"/>
  <path id="Path_7" data-name="Path 7" d="M321.218,97.635s-5.458-7.48-10.777.277c-5.319,7.785-10.279,14.157-10.279,14.157l-13.215,4.322-7.647.693,2.106,6.815,22.247-3.242S328.421,105.946,321.218,97.635Z" transform="translate(-264.347 -68.254)" fill="#654c9e"/>
  <path id="Path_8" data-name="Path 8" d="M322.188,255.6s-8.312,5.818-7.757,11.082,4.156,19.671,4.156,19.671l7.48-1.108s.831-11.082-1.939-15.238l13.3-7.48Z" transform="translate(-289.725 -184.8)" fill="#ffb8b8"/>
  <path id="Path_9" data-name="Path 9" d="M408.714,305.1s-.554,10.251.831,14.407,2.77,19.671,2.77,19.671h7.757s3.6-13.576-.831-19.671c0,0-1.385-8.035,2.493-11.913Z" transform="translate(-357.828 -220.585)" fill="#ffb8b8"/>
  <path id="Path_10" data-name="Path 10" d="M355.508,196.816S337.5,208.176,337.5,211.777l14.407,11.913,4.987-5.541-.554,8.312,15.515,3.048s5.541-21.056,5.264-21.887S376.01,194.6,376.01,194.6Z" transform="translate(-306.422 -140.7)" fill="#654c9e"/>
  <path id="Path_11" data-name="Path 11" d="M335.535,357.6l-8.035,1.662,1.441,5.873a21,21,0,0,1,.222,8.81h0s8.312,2.216,8.312,1.108-1.939-5.541-1.385-8.589S335.535,357.6,335.535,357.6Z" transform="translate(-299.193 -258.54)" fill="#fff"/>
  <path id="Path_12" data-name="Path 12" d="M316.987,418.061c-.277-1.108-2.577-6.123-2.687-5.292s-4.516,2.244-6.178.582c0,0-2.216-1.939-3.048,0s-2.494,5.264-2.494,5.264-7.48,3.6-6.372,5.541c.222.388.859.554,1.69.582a.351.351,0,0,0-.028.166v.194a.438.438,0,0,0,.443.443h.194a.438.438,0,0,0,.443-.443V424.9a.4.4,0,0,0-.055-.194c.222-.028.471-.055.693-.083a.492.492,0,0,0-.111.277v.194a.438.438,0,0,0,.443.443h.194a.438.438,0,0,0,.443-.443V424.9a.418.418,0,0,0-.249-.388c.637-.111,1.3-.249,1.967-.388a.333.333,0,0,0-.055.222v.194a.438.438,0,0,0,.443.443h.194a.438.438,0,0,0,.443-.443v-.194a.485.485,0,0,0-.277-.416c.5-.111.97-.249,1.441-.36a.333.333,0,0,0-.055.222v.194a.438.438,0,0,0,.443.443h.194a.438.438,0,0,0,.443-.443V423.8a.474.474,0,0,0-.332-.443c1.635-.471,2.826-.859,2.826-.859s1.385-.5,3.048-1.191v.166a.438.438,0,0,0,.443.443h.194a.438.438,0,0,0,.443-.443v-.194a.447.447,0,0,0-.166-.36c.333-.138.665-.277,1-.443v.166a.438.438,0,0,0,.443.443h.194a.438.438,0,0,0,.443-.443v-.194a.474.474,0,0,0-.194-.36c.36-.166.72-.332,1.025-.5v.249a.438.438,0,0,0,.443.443h.194a.438.438,0,0,0,.443-.443v-.194a.449.449,0,0,0-.36-.443C316.571,418.726,317.042,418.31,316.987,418.061Z" transform="translate(-276.489 -298.222)" fill="#654c9e"/>
  <path id="Path_13" data-name="Path 13" d="M425.992,422.154l-8.783-.554s.526,9.143-.526,12.19-.526,4.156-.526,4.156l7.7.554Z" transform="translate(-363.192 -304.809)" fill="#fff"/>
  <path id="Path_14" data-name="Path 14" d="M395.836,476.356c-.028-1.136-1.247-6.538-1.524-5.735s-4.9,1.247-6.178-.72c0,0-1.773-2.355-2.992-.637s-3.546,4.627-3.546,4.627-8.062,1.967-7.4,4.1c.138.443.72.72,1.524.914a.468.468,0,0,0-.055.139l-.028.194a.471.471,0,0,0,.36.554l.194.028a.471.471,0,0,0,.554-.36l.028-.194c.028-.055,0-.139,0-.222.222.028.471.055.693.083a.5.5,0,0,0-.166.249l-.028.194a.471.471,0,0,0,.36.554l.194.028a.471.471,0,0,0,.554-.36l.028-.194a.511.511,0,0,0-.139-.443c.637.028,1.33.028,1.995.028a.556.556,0,0,0-.111.222l-.028.194a.471.471,0,0,0,.36.554l.194.028a.471.471,0,0,0,.554-.36l.028-.194a.507.507,0,0,0-.166-.471c.5-.028,1.025-.028,1.5-.055a.558.558,0,0,0-.111.222l-.028.194a.471.471,0,0,0,.36.554l.194.028a.471.471,0,0,0,.554-.36l.028-.194a.51.51,0,0,0-.222-.5c1.69-.111,2.937-.249,2.937-.249s1.441-.194,3.214-.526l-.028.166a.471.471,0,0,0,.36.554l.194.028a.471.471,0,0,0,.554-.36l.028-.194a.411.411,0,0,0-.111-.388c.36-.055.72-.138,1.081-.222l-.028.166a.471.471,0,0,0,.36.554l.194.028a.471.471,0,0,0,.554-.36l.028-.194a.464.464,0,0,0-.111-.416c.388-.083.776-.194,1.108-.277v.055l-.028.194a.471.471,0,0,0,.36.554l.194.028a.471.471,0,0,0,.554-.36l.028-.194a.453.453,0,0,0-.277-.526C395.282,476.91,395.836,476.633,395.836,476.356Z" transform="translate(-332.925 -338.814)" fill="#654c9e"/>
  <circle id="Ellipse_1" data-name="Ellipse 1" cx="8.034" cy="8.034" r="8.034" transform="translate(41.052 4.031)" fill="#ffb8b8"/>
  <path id="Path_15" data-name="Path 15" d="M413.563,40.6s4.433,5.541,6.649,5.264l-9.7,7.48s-1.108-4.71-2.494-5.264S413.563,40.6,413.563,40.6Z" transform="translate(-357.274 -29.366)" fill="#ffb8b8"/>
  <path id="Path_16" data-name="Path 16" d="M406.759,91.647s0-30.559-5.125-33.218c-5.125-2.632-8.505-4.128-8.505-4.128h0a7.28,7.28,0,0,1-2.771,5.153c-1.69,1.3-3.38,2.41-4.35,2.41l-.028-.139-.111-.332-2.8,4.35s-2.494.554-3.325,2.216c-.443.887,1.662,9.946.416,18.147-1.053,6.954-5.541,13.215-5.68,13.991-.222,1.3,5.236-2.078,7.7-3.657l.055.055s-1.385.554,1.385-.277A18.5,18.5,0,0,1,389,95.775c0,.471,0,.859.028,1.136.277,2.771,14.13,6.649,16.069,5.818S406.759,91.647,406.759,91.647Z" transform="translate(-333.154 -39.27)" fill="#654c9e"/>
  <path id="Path_17" data-name="Path 17" d="M443.8,227.1s-8.312,7.48-2.771,8.866,7.757-7.757,7.757-7.757Z" transform="translate(-379.892 -164.195)" fill="#ffb8b8"/>
  <path id="Path_18" data-name="Path 18" d="M424.6,449.313s2.189-2.022,3.435-.942,2.023,1.884,2.023,1.884S426.484,448.066,424.6,449.313Z" transform="translate(-369.391 -323.933)" fill="#654c9e"/>
  <path id="Path_19" data-name="Path 19" d="M336.2,380.275s1.5-2.577,3.02-1.884,2.493,1.191,2.493,1.191S337.641,378.53,336.2,380.275Z" transform="translate(-305.483 -273.486)" fill="#654c9e"/>
  <path id="Path_20" data-name="Path 20" d="M457.567,75.324c-2.743-5.513-11.11-2.521-9.752,3.519.028.083.028.194.055.277A54.829,54.829,0,0,0,454.8,95.189l-3.048,13.576-3.325,6.926,6.926,1.662,8.589-20.779C463.966,96.574,461.584,83.414,457.567,75.324Z" transform="translate(-386.067 -52.371)" fill="#654c9e"/>
  <path id="Path_22" data-name="Path 22" d="M381.22,2.751s-4.433-4.682-8.921-1.718-6.594,5.818-6.151,7.785a30.16,30.16,0,0,0,1.745,4.765s-.8-4.128,2.909-4.433,8.81-2.743,8.81-2.743l3.463,7.4s.5-1.718,1.856-1.219S385.21,3.278,381.22,2.751Z" transform="translate(-327.092 -0.05)"/>
  <ellipse id="Ellipse_2" data-name="Ellipse 2" cx="13.333" cy="14.053" rx="13.333" ry="14.053" transform="translate(0 94.324)" fill="#654c9e"/>
</svg>
